# xmcd
#
# Track frame offsets:
#	150
#	23133
#	38579
#	53202
#	66939
#	86777
#	102250
#	122405
#	138596
#	154002
#	169226
#	188370
#	207776
#	211909
#	223425
#	234928
#	246619
#	258994
#
# Disc length: 3671 seconds
#
# Revision: 0
# Processed by: cddbd v1.5.2PL0 Copyright (c) Steve Scherf et al.
# Submitted via: audiograbber 1.83.01
#
DISCID=010e5512
DTITLE=Neil Sedaka - Happy Birthday Swet Sixteen - Disk 2
DYEAR=2007
DGENRE=Pop
TTITLE0=Solitaire
TTITLE1=Express Yourself
TTITLE2=Home
TTITLE3=Adventures of a Boy Child Wonder
TTITLE4=Better Days Are Coming
TTITLE5=Trying To Say Goodbye
TTITLE6=Don't Let It Mess Your Mind
TTITLE7=Anywhere You're Gonna Be (Leba's Song)
TTITLE8=I'm A Song, Sing Me
TTITLE9=Gone With The Morning
TTITLE10=Superbird
TTITLE11=Silent Movies
TTITLE12=Little Song
TTITLE13=Alice In Wonderland
TTITLE14=Walk With Me
TTITLE15=We Kiss In A Shadow
TTITLE16=Circulate
TTITLE17=I Found My World In You
EXTD=
EXTT0=
EXTT1=
EXTT2=
EXTT3=
EXTT4=
EXTT5=
EXTT6=
EXTT7=
EXTT8=
EXTT9=
EXTT10=
EXTT11=
EXTT12=
EXTT13=
EXTT14=
EXTT15=
EXTT16=
EXTT17=
PLAYORDER=
